<?xml version="1.0" encoding="UTF-8"?>
<svg xmlns="http://www.w3.org/2000/svg" width="512" height="512" viewBox="0 0 512 512" fill="none">
  <rect width="512" height="512" fill="#2563eb" rx="41"/>
  <g transform="translate(76.80000000000001,76.80000000000001) scale(11.2)">
    <defs>
      <clipPath id="gc">
        <circle cx="16" cy="16" r="13.1"/>
      </clipPath>
    </defs>
    <circle cx="16" cy="16" r="14" stroke="#ffffff" stroke-width="1.8"/>
    <g clip-path="url(#gc)" opacity="0.55">
      <ellipse cx="16" cy="16" rx="6" ry="14" stroke="#ffffff" stroke-width="0.9"/>
      <ellipse cx="16" cy="16" rx="12" ry="14" stroke="#ffffff" stroke-width="0.7"/>
      <path d="M2 16h28" stroke="#ffffff" stroke-width="0.7"/>
      <path d="M2 10h28" stroke="#ffffff" stroke-width="0.6"/>
      <path d="M2 22h28" stroke="#ffffff" stroke-width="0.6"/>
    </g>
    <path d="M16.2,11.5 L17,11.3 L17.7,10.8 L18.3,10.8 L18.7,10.6 L19.4,10.7 L20.4,11.2 L21.2,11.3 L22.2,12.1 L22.9,12.2 L23,13 L22.6,14.1 L22.4,14.8 L22.8,14.9 L22.4,15.5 L22.7,16.2 L22.8,16.8 L23.5,17 L23.6,17.6 L22.7,18.4 L23.2,18.9 L23.6,19.5 L24.4,19.9 L24.5,20.7 L24.9,20.9 L25,21.3 L23.6,21.8 L23.3,22.9 L21.5,22.6 L20.5,22.4 L19.5,22.2 L19.1,21.1 L18.6,20.9 L17.9,21.1 L16.9,21.5 L15.8,21.2 L14.8,20.5 L13.9,20.2 L13.3,19.4 L12.6,18.1 L12.1,18.3 L11.5,17.9 L11.2,18.3 L10.7,17.8 L10.7,17.3 L10.4,17.3 L10.5,16.6 L10,15.9 L8.9,15.4 L8.2,14.5 L8.4,13.8 L8.9,13.5 L8.8,12.9 L8.2,12.6 L7.6,11.5 L7.1,10.8 L7.3,10.5 L7,9.4 L7.6,9.1 L7.8,9.5 L8.3,9.9 L8.9,10.1 L9.2,10 L10.4,9.3 L10.7,9.3 L11,9.5 L10.7,10 L11.2,10.5 L11.5,10.4 L11.8,11.1 L12.7,11.3 L13.3,11.8 L14.6,12 L16.1,11.7 L16.2,11.5 Z" stroke="#ffffff" stroke-width="1.2" stroke-linejoin="round" stroke-linecap="round" fill="#ffffff" fill-opacity="0.12"/>
  </g>
  
</svg>